<svg viewBox="0 0 64 64" xmlns="http://www.w3.org/2000/svg"><circle cx="34" cy="35" r="23" fill="#edebdc" class="fill-edebdc"></circle><path d="M52 4v2M52 10v2M48 8h2M54 8h2" fill="none" stroke="#4c241d" stroke-linecap="round" stroke-linejoin="round" stroke-width="2px" class="stroke-4c241d"></path><circle cx="28.5" cy="24.5" r="2.5" fill="none" stroke="#4c241d" stroke-linecap="round" stroke-linejoin="round" stroke-width="2px" class="stroke-4c241d"></circle><circle cx="57.082" cy="28.598" r="1.069" fill="#4c241d" class="fill-4c241d"></circle><circle cx="26.082" cy="6.598" r="1.069" fill="#4c241d" class="fill-4c241d"></circle><path d="M44.954 46.518c0 1.535 3.369 2.78 7.523 2.78S60 48.053 60 46.518V42H44.954Z" fill="#e66353" stroke="#4c241d" stroke-linecap="round" stroke-linejoin="round" stroke-width="2.04051542282105px" class="fill-e66353 stroke-4c241d"></path><ellipse cx="52.477" cy="42.071" rx="7.523" ry="2.78" fill="#f53e28" stroke="#4c241d" stroke-linecap="round" stroke-linejoin="round" stroke-width="2.04051542582443px" class="fill-f53e28 stroke-4c241d"></ellipse><path d="m42 39-2.5-2.5M44.35 37.809l-.751-3.455" fill="none" stroke="#4c241d" stroke-linecap="round" stroke-linejoin="round" stroke-width="2px" class="stroke-4c241d"></path><path d="M5.78 14.61 3 17.39l6.942 9.668 2.975-2.975L5.78 14.61z" fill="#914d4d" stroke="#4c241d" stroke-linecap="round" stroke-linejoin="round" stroke-width="2px" class="fill-ffffff stroke-4c241d"></path><path d="M38.361 55a4.544 4.544 0 0 1-3.212-2.014l-22.232-28.9L9.942 27l23 31.38A4 4 0 0 0 36.171 60H45.1a4.213 4.213 0 0 0 3.6-1.995L50.809 55Z" fill="#bf7e68" stroke="#4c241d" stroke-linecap="round" stroke-linejoin="round" stroke-width="2px" class="fill-bf7e68 stroke-4c241d"></path></svg>