<?xml version="1.0" ?><svg id="Filled" viewBox="0 0 512 512" xmlns="http://www.w3.org/2000/svg"><rect height="40" style="fill:#606669" width="112" x="200" y="304"/><rect height="288" style="fill:#9aa3a8" width="464" x="24" y="24"/><circle cx="256" cy="152" r="72" style="fill:#e9eef2"/><polygon points="240 128 240 176 288 152 240 128" style="fill:#eb423f"/><polygon points="192 488 80 488 64 272 208 272 192 488" style="fill:#2d85cc"/><polygon points="64 248 208 248 216 280 56 280 64 248" style="fill:#dadcde"/><path d="M448,312c-3.125,0-5.262-1.086-8,0-2.771-10.192-12.93-16-24-16-6.148,0-11.755,4.2-16,8-4.247-3.8-9.849-8-16-8-3.125,0-5.262-1.086-8,0-2.771-10.192-12.93-16-24-16s-21.229,6.291-24,16.483c-2.738-1.087-4.875,0-8,0-6.151,0-11.759,4.195-16.006,8-4.244-3.8-9.846-8-15.994-8-11.07,0-21.229,5.325-24,15.517-2.738-1.086-4.875,0-8,0a24,24,0,0,0-24,24v24c0,66.274,53.726,128,120,128s120-61.726,120-128V344C473.6,329.52,462.156,312,448,312Z" style="fill:#ffd33a"/><path d="M472,360c0,66.274-53.726,128-120,128S232,426.274,232,360Z" style="fill:#eb423f"/><path d="M368,272a16,16,0,0,0-32,0,16,16,0,0,0,0,32c.7,0-.679.088,0,0,2.746,4.861,10.019,8,16,8s13.254-3.139,16-8c.679.088-.7,0,0,0a16,16,0,0,0,0-32Z" style="fill:#ffe76c"/><path d="M416,448a16,16,0,0,0-32,0,16,16,0,0,0,0,32c.7,0-.679.088,0,0,2.746,4.861,10.019,8,16,8s13.254-3.139,16-8c.679.088-.7,0,0,0a16,16,0,0,0,0-32Z" style="fill:#ffe76c"/><path d="M440,216a16,16,0,0,0-32,0,16,16,0,0,0,0,32c.7,0-.679.088,0,0,2.746,4.861,10.019,8,16,8s13.254-3.139,16-8c.679.088-.7,0,0,0a16,16,0,0,0,0-32Z" style="fill:#ffe76c"/><circle cx="136" cy="360" r="32" style="fill:#395a8d"/><path d="M496,312V24a8,8,0,0,0-8-8H24a8,8,0,0,0-8,8V312a8,8,0,0,0,8,8H59.533l1.186,16H40a8,8,0,0,0,0,16H61.9l9.481,128H24a8,8,0,0,0,0,16H488a8,8,0,0,0,0-16H433.848a23.884,23.884,0,0,0,5.374-22.047C464.838,431.918,480,395.712,480,360V336a31.8,31.8,0,0,0-4.305-16H488A8,8,0,0,0,496,312ZM201.754,256l4,16H66.246l4-16ZM422.969,441.031a24,24,0,0,0-45.938,0,23.965,23.965,0,0,0-11.676,38.039A98.287,98.287,0,0,1,352,480c-29.332,0-57.371-12.98-78.953-36.55A126.067,126.067,0,0,1,240.286,368H463.705c-1.979,27.927-14.182,55.6-33.742,76.5A23.925,23.925,0,0,0,422.969,441.031ZM224,336H211.281l1.186-16h15.838A31.8,31.8,0,0,0,224,336ZM87.43,480,73.208,288H198.792L184.57,480Zm113.185,0L210.1,352H224v8c0,34.05,13.576,68.4,37.247,94.256A134.152,134.152,0,0,0,293.091,480Zm190.906-3.221a7.927,7.927,0,0,0-7.37-4.778c-.064,0-.126,0-.194,0A8,8,0,0,1,384,456a8,8,0,0,0,8-8,8,8,0,0,1,16,0,8,8,0,0,0,8,8,8,8,0,0,1,.043,16h-.194a7.927,7.927,0,0,0-7.37,4.778,12.771,12.771,0,0,1-16.958,0ZM464,336v16H240V336a16.019,16.019,0,0,1,16-16h8a8,8,0,0,0,7.72-5.9c1.929-7.1,9.976-9.617,16.28-9.617,4,0,9.011,4.486,10.656,5.959a8,8,0,0,0,10.675,0c1.477-1.321,5.657-5.056,9.4-5.814a23.956,23.956,0,0,0,13.047,7C336.979,317.14,345.332,320,352,320s15.021-2.86,20.222-8.372a23.96,23.96,0,0,0,13.419-7.4c3.641.919,7.594,4.457,9.021,5.735a8,8,0,0,0,10.676,0C406.983,308.485,411.99,304,416,304c6.736,0,14.384,3.123,16.28,10.1A8,8,0,0,0,440,320h8A16.019,16.019,0,0,1,464,336ZM328,288a8.009,8.009,0,0,1,8-8,8,8,0,0,0,8-8,8,8,0,0,1,16,0,8,8,0,0,0,8,8,8,8,0,0,1,.043,16h-.194a7.927,7.927,0,0,0-7.37,4.778,12.771,12.771,0,0,1-16.958,0,7.927,7.927,0,0,0-7.37-4.778c-.064,0-.125,0-.194,0A8.009,8.009,0,0,1,328,288Zm152,16H445.353c-5.313-9.774-16.391-16-29.353-16-6.2,0-11.641,2.674-16,5.742a34.267,34.267,0,0,0-8.065-4.3c.029-.479.065-.955.065-1.441a24.044,24.044,0,0,0-17.031-22.969,24,24,0,0,0-45.938,0A24.044,24.044,0,0,0,312,288c0,.645.036,1.281.086,1.914A34.236,34.236,0,0,0,304,294.225c-4.358-3.069-9.8-5.743-16-5.743-13.2,0-24.1,5.922-29.347,15.518h-45l1.185-16H216a8,8,0,0,0,7.761-9.94l-8-32A8,8,0,0,0,208,240H143.062l-7.124-56.992a8,8,0,0,0-4.36-6.163l-32-16a8,8,0,0,0-7.156,14.31l28.171,14.085L126.938,240H64a8,8,0,0,0-7.761,6.06l-8,32A8,8,0,0,0,56,288h1.163l1.185,16H32V32H480Z"/><path d="M256,232a80,80,0,1,0-80-80A80.091,80.091,0,0,0,256,232Zm0-144a64,64,0,1,1-64,64A64.072,64.072,0,0,1,256,88Z"/><path d="M235.794,182.806a8,8,0,0,0,7.784.349l48-24a8,8,0,0,0,0-14.31l-48-24A8,8,0,0,0,232,128v48A8,8,0,0,0,235.794,182.806ZM248,140.944,270.111,152,248,163.056Z"/><path d="M136,320a40,40,0,1,0,40,40A40.045,40.045,0,0,0,136,320Zm24,40a23.941,23.941,0,0,1-.735,5.9l-37.646-25.1A23.988,23.988,0,0,1,160,360Zm-48,0a23.941,23.941,0,0,1,.735-5.9l37.646,25.1A23.988,23.988,0,0,1,112,360Z"/><path d="M403.778,255.628C408.979,261.14,417.332,264,424,264s15.021-2.86,20.222-8.372a24,24,0,0,0,2.747-46.6,24,24,0,0,0-45.938,0,24,24,0,0,0,2.747,46.6ZM408,224a8,8,0,0,0,8-8,8,8,0,0,1,16,0,8,8,0,0,0,8,8,8,8,0,0,1,.043,16h-.194a7.927,7.927,0,0,0-7.37,4.778,12.771,12.771,0,0,1-16.958,0,7.927,7.927,0,0,0-7.37-4.778h-.194A8,8,0,0,1,408,224Z"/></svg>