<?xml version="1.0" ?><svg viewBox="0 0 64 64" xmlns="http://www.w3.org/2000/svg"><g data-name="Layer 31" id="Layer_31"><path d="M49,9H45l-.849,12.732a8,8,0,0,1-1.472,4.118L40.49,28.914A8,8,0,0,0,39,33.564V53a4,4,0,0,0,4,4h8a4,4,0,0,0,4-4V33.564a8,8,0,0,0-1.49-4.65L51.321,25.85a8,8,0,0,1-1.472-4.118Z" style="fill:#7a838b"/><path d="M41.219,53V33.564a8,8,0,0,1,1.49-4.65L44.9,25.85a8,8,0,0,0,1.472-4.118L47.219,9H45l-.849,12.732a8.006,8.006,0,0,1-1.472,4.118L40.49,28.914A8,8,0,0,0,39,33.564V53a4,4,0,0,0,4,4h2.219A4,4,0,0,1,41.219,53Z" style="fill:#5d6972"/><path d="M46,5h2a2,2,0,0,1,2,2V8a0,0,0,0,1,0,0H44a0,0,0,0,1,0,0V7A2,2,0,0,1,46,5Z" style="fill:#62b5e8"/><rect height="3" style="fill:#62b5e8" width="6" x="44" y="8"/><path d="M51.321,25.85a8.01,8.01,0,0,1-1.472-4.118L49.533,17H44.467l-.316,4.732a8.006,8.006,0,0,1-1.472,4.118L40.49,28.914A8,8,0,0,0,39,33.564V53a4,4,0,0,0,4,4h8a4,4,0,0,0,4-4V33.564a8,8,0,0,0-1.49-4.65Z" style="fill:#62b5e8"/><path d="M30,18h0a36.632,36.632,0,0,0,1,12h3a36.047,36.047,0,0,1,.144-7.4A4.145,4.145,0,0,0,30,18Z" style="fill:#69aa57"/><path d="M25.227,30.773c9.379,9.379,14.13,19.833,10.613,23.35S24.7,50.058,15.321,40.679-1.64,23.677,1.877,20.16,15.848,21.394,25.227,30.773Z" style="fill:#f8c460"/><path d="M25.227,30.773c-1.245-1.244-2.508-2.4-3.772-3.474a7.169,7.169,0,0,0-2.465,2.89,3.939,3.939,0,0,1-3.82,2.187q-4.3-.3-8.591-.748c1.242,1.4,2.644,2.876,4.151,4.421,2.452.217,4.9.383,7.356.524C18.628,42.209,21.96,48,26,48a5.649,5.649,0,0,0,4-1.995A5.649,5.649,0,0,0,34,48a4.725,4.725,0,0,0,2.386-.684C34.936,42.613,30.95,36.5,25.227,30.773Z" style="fill:#faaf42"/><path d="M45.914,36.582q4.543-.267,9.086-.7V33.564a7.971,7.971,0,0,0-.2-1.661q-2.964.281-5.929.489a4.05,4.05,0,0,1-3.91-2.274q-.115-.232-.242-.451A3.522,3.522,0,0,1,44.9,25.85h0a7.992,7.992,0,0,0,1.472-4.118L46.686,17H44.467l-.316,4.732a8.01,8.01,0,0,1-1.472,4.118L40.49,28.914a7.987,7.987,0,0,0-1.438,3.98h0c-.019.223-.052.445-.052.67V53a4,4,0,0,0,4,4h2.219a4,4,0,0,1-4-4V46.718C43.706,44.711,45.523,40.614,45.914,36.582Z" style="fill:#44a7d8"/><path d="M36,26a8.264,8.264,0,0,0-4,.972A8.264,8.264,0,0,0,28,26c-4.418,0-8,2.925-8,9s3.582,13,8,13a5.649,5.649,0,0,0,4-1.995A5.649,5.649,0,0,0,36,48c4.418,0,8-6.925,8-13S40.418,26,36,26Z" style="fill:#f96464"/><path d="M43.8,32.685q-6.886.339-13.773.269c-4.106-.039-4.706-6.083-.665-6.809l.094-.016A9.02,9.02,0,0,0,28,26c-4.105,0-7.484,2.529-7.943,7.76,0,.016,0,.031,0,.046C20.02,34.191,20,34.587,20,35c0,.3.013.6.033.9.014.258.038.516.064.776h0C20.67,42.282,23.985,48,28,48a4.4,4.4,0,0,0,1.5-.276c-3.294-1.182-5.869-6.084-6.4-10.933,6.933.257,13.865.232,20.8-.112A16.731,16.731,0,0,0,44,35,13.186,13.186,0,0,0,43.8,32.685Z" style="fill:#d34444"/><path d="M15.286,22.771c.028.3.035.615.035.927,0,2.731-.764,4.952-1.712,4.952S11.9,26.436,11.91,23.7a11.789,11.789,0,0,1,.269-2.674A34.982,34.982,0,0,1,15.286,22.771Z" style="fill:#faaf42"/><path d="M5,13V38H9V13a8,8,0,0,1,8-8H47a8,8,0,0,1,8,8V38h4V13A12,12,0,0,0,47,1H17A12,12,0,0,0,5,13Z" style="fill:#fcab68"/><path d="M61,37H3L6.035,55.211a7.971,7.971,0,0,0,6.86,6.621,156.868,156.868,0,0,0,38.21,0,7.971,7.971,0,0,0,6.86-6.621Z" style="fill:#fcab68"/><path d="M60.26,41.44l-.68,4.07a255.573,255.573,0,0,1-55.16,0l-.68-4.07A256.75,256.75,0,0,0,60.26,41.44Z" style="fill:#ea8e49"/><path d="M58.9,49.58l-.68,4.07a255.3,255.3,0,0,1-52.44,0L5.1,49.58A255.95,255.95,0,0,0,58.9,49.58Z" style="fill:#ea8e49"/><path d="M57.07,57.77a7.916,7.916,0,0,1-5.96,4.06,156.525,156.525,0,0,1-16.72,1.15c-1.59.03-3.19.03-4.78,0a156.525,156.525,0,0,1-16.72-1.15,7.916,7.916,0,0,1-5.96-4.06A256.1,256.1,0,0,0,57.07,57.77Z" style="fill:#ea8e49"/><path d="M51,37,47.69,58.52l-.58,3.75c-1.35.13-2.7.24-4.05.34l.6-3.88L47,37Z" style="fill:#ea8e49"/><path d="M13,37l3.31,21.52.58,3.75c1.35.13,2.7.24,4.05.34l-.6-3.88L17,37Z" style="fill:#ea8e49"/><rect height="26" style="fill:#ea8e49" width="4" x="30" y="37"/><path d="M60.776,33.277a241.192,241.192,0,0,1-57.552,0A1.98,1.98,0,0,0,1,35.24H1a1.993,1.993,0,0,0,1.747,1.979,241.1,241.1,0,0,0,58.506,0A1.993,1.993,0,0,0,63,35.24h0A1.98,1.98,0,0,0,60.776,33.277Z" style="fill:#ea8e49"/><path d="M53.24,34.06l-3.07,4.25L41,51,32.33,39l-2.9-4.02Q41.34,35.115,53.24,34.06Z" style="fill:#f8c460"/><path d="M34.33,38l-2.181-3.023c-.906,0-1.813.013-2.719,0L32.33,39,41,51l1.361-1.884Z" style="fill:#faaf42"/></g></svg>