<?xml version="1.0" ?><svg id="Flat" viewBox="0 0 512 512" xmlns="http://www.w3.org/2000/svg"><path d="M96,280V440H48a16,16,0,0,1-16-16V264a32,32,0,0,1,32-32H80v48Z" style="fill:#77a97e"/><path d="M96,232v48H32V264a32,32,0,0,1,32-32Z" style="fill:#4c8f56"/><path d="M320,280V440h48a16,16,0,0,0,16-16V264a32,32,0,0,0-32-32H336v48Z" style="fill:#77a97e"/><path d="M320,232v48h64V264a32,32,0,0,0-32-32Z" style="fill:#4c8f56"/><rect height="64" style="fill:#4c8f56" width="256" x="80" y="104"/><path d="M336,168V456.67H320c0-7.67,0,15.33-1.1,15.33H97.1c-9.44,0-17.1-7.34-17.1-16.39V168Z" style="fill:#89c592"/><rect height="64" rx="16" ry="16" style="fill:#93573d" width="320" x="48" y="40"/><path d="M144,232H272a32,32,0,0,1,32,32v80a16,16,0,0,1-16,16H128a16,16,0,0,1-16-16V264A32,32,0,0,1,144,232Z" style="fill:#4c8f56"/><path d="M144,392H272a32,32,0,0,1,32,32v48a0,0,0,0,1,0,0H112a0,0,0,0,1,0,0V424A32,32,0,0,1,144,392Z" style="fill:#4c8f56"/><rect height="112" style="fill:#684436" width="32" x="128" y="24"/><rect height="112" style="fill:#684436" width="32" x="256" y="24"/><path d="M128,152h32a0,0,0,0,1,0,0v32a16,16,0,0,1-16,16h0a16,16,0,0,1-16-16V152A0,0,0,0,1,128,152Z" style="fill:#684436"/><path d="M256,152h32a0,0,0,0,1,0,0v32a16,16,0,0,1-16,16h0a16,16,0,0,1-16-16V152A0,0,0,0,1,256,152Z" style="fill:#684436"/><path d="M480,417.67V424a63.9,63.9,0,0,1-64,64H368V472H304v16H208V336a32,32,0,0,1,32-32h96v30.33a32.009,32.009,0,0,0,25.06,31.24l93.88,20.86A32,32,0,0,1,480,417.67Z" style="fill:#ce3536"/><path d="M480,417.67V424a64.41,64.41,0,0,1-2.01,16H208V312a32,32,0,0,1,32-32h96v54.33a32.009,32.009,0,0,0,25.06,31.24l93.88,20.86A32,32,0,0,1,480,417.67Z" style="fill:#ce3536"/><path d="M480,417.67V424a63.88,63.88,0,0,1-40,59.35,62.427,62.427,0,0,1-8,2.64,63.494,63.494,0,0,1-8,1.52,65.965,65.965,0,0,1-8,.49H368V472H304v16H208V440H405.49a64,64,0,0,0,45.26-18.75l22.82-22.82A31.894,31.894,0,0,1,480,417.67Z" style="fill:#c2c5c6"/><path d="M232,488v-8a8,8,0,0,1,16,0v8Z" style="fill:#7e8488"/><path d="M264,488v-8a8,8,0,0,1,16,0v8Z" style="fill:#7e8488"/><path d="M392,488v-8a8,8,0,0,1,16,0v8Z" style="fill:#7e8488"/><path d="M440,480v3.35a62.427,62.427,0,0,1-8,2.64,63.494,63.494,0,0,1-8,1.52V480a8,8,0,0,1,16,0Z" style="fill:#7e8488"/><polygon points="272 440 208 440 208 392 272 408 272 440" style="fill:#e74444"/><path d="M344,320H296a8,8,0,0,1,0-16h48a8,8,0,0,1,0,16Z" style="fill:#684436"/><path d="M344,352H296a8,8,0,0,1,0-16h48a8,8,0,0,1,0,16Z" style="fill:#684436"/><rect height="16" style="fill:#93573d" width="48" x="120" y="136"/><rect height="16" style="fill:#93573d" width="48" x="248" y="136"/></svg>